<svg xmlns="http://www.w3.org/2000/svg" viewBox="0 0 744.66 594.92"><defs><filter id="a" width="1.093" height="1.099" x="-.047" y="-.049" style="color-interpolation-filters:sRGB"><feGaussianBlur stdDeviation=".864"/></filter></defs><path d="M-2689.915-502.844c-5.395-.085-11.427 1.493-16.523 5.441-6.796 5.264-11.944 13.651-16.14 26.041a10 10 0 0 0 6.263 12.678 10 10 0 0 0 12.68-6.262c3.438-10.152 7.187-14.895 9.445-16.644 2.258-1.75 3.009-1.593 4.867-1.16 3.716.864 9.207 6.167 9.207 6.167a10 10 0 0 0 14.613.754c4.78-4.626 8.277-6.22 10.397-6.707s3.145-.182 4.396.422c2.503 1.208 4.536 4.248 4.536 4.248a10 10 0 0 0 13.93 3.791c5.755-3.454 9.286-3.983 11.023-3.884 1.737.098 2.283.51 3.252 1.51 1.938 1.996 3.193 6.439 3.193 6.439l.047.254c9.27 45.886-27.615 86.72-27.615 86.72a10 10 0 0 0 .515 14.133 10 10 0 0 0 14.131-.515s44.17-46.373 32.596-104.143c-.02-.16-1.197-9.277-8.516-16.818-3.692-3.804-9.533-7.155-16.474-7.547-4.657-.264-9.56.77-14.703 2.87-1.953-1.815-4.224-3.623-7.221-5.07-4.661-2.25-10.975-3.416-17.57-1.9-4.17.959-8.34 2.98-12.52 5.875-3.27-2.405-7.363-4.842-12.684-6.08a24.4 24.4 0 0 0-5.125-.613zM-2555.305-448.641a10 10 0 0 0-9.877 9.857 10 10 0 0 0 9.857 10.14c10.718.153 16.384 2.265 18.742 3.876s2.44 2.372 2.6 4.273c.319 3.803-3.041 10.659-3.041 10.659a10 10 0 0 0 3.771 14.136c5.871 3.127 8.463 5.966 9.578 7.834s1.14 2.936.95 4.313c-.38 2.753-2.649 5.623-2.649 5.623a10 10 0 0 0 .672 14.418c5.056 4.415 6.644 7.615 7.084 9.299s.215 2.33-.437 3.558c-1.305 2.458-5.147 5.016-5.147 5.016l-.226.125c-40.818 22.922-91.012.367-91.012.367a10 10 0 0 0-13.29 4.832 10 10 0 0 0 4.833 13.291s57.693 27.778 109.11-.978c.128-.06 8.465-3.984 13.398-13.276 2.485-4.682 3.88-11.272 2.12-17.998-1.18-4.512-3.67-8.86-7.25-13.107 1.128-2.417 2.148-5.135 2.604-8.432.709-5.127-.12-11.495-3.59-17.305-2.193-3.673-5.397-7.02-9.437-10.107 1.284-3.85 2.345-8.493 1.889-13.938-.55-6.543-4.151-14.268-11.248-19.117-7.098-4.849-16.659-7.173-29.739-7.36zM-2650.333-318.163a10 10 0 0 0-10.031 8.84s-8.195 63.498 35.28 103.242c.085.09 6.445 6.787 16.827 8.543 5.227.885 11.92.134 17.75-3.654 3.911-2.54 7.254-6.275 10.159-11.01 2.648.31 5.549.424 8.822-.181 5.09-.942 10.871-3.735 15.293-8.858 2.795-3.238 4.965-7.334 6.623-12.14 4.059.006 8.8-.45 13.822-2.598 6.038-2.581 12.236-8.432 14.604-16.695s1.56-18.07-2.383-30.543a10 10 0 0 0-12.549-6.522 10 10 0 0 0-6.521 12.55c3.23 10.22 3.013 16.261 2.226 19.007-.786 2.745-1.486 3.064-3.24 3.814-3.508 1.5-11.07.47-11.07.47a10 10 0 0 0-12.233 8.032c-1.118 6.557-2.996 9.91-4.418 11.557-1.421 1.647-2.428 2.007-3.795 2.26-2.732.505-6.17-.744-6.17-.744a10 10 0 0 0-13.474 5.18c-2.6 6.188-5.133 8.702-6.592 9.65s-2.144.939-3.516.707c-2.743-.465-6.382-3.307-6.382-3.307l-.19-.176c-34.61-31.522-29.008-86.263-29.008-86.263a10 10 0 0 0-8.773-11.094 10 10 0 0 0-1.06-.067M-2687.626-340.467a10 10 0 0 0-1.87.16s-63.147 10.627-88.526 63.793c-.071.125-4.61 8.14-3.274 18.574.674 5.258 3.338 11.444 8.659 15.92 3.568 3.002 8.113 5.113 13.488 6.516.474 2.624 1.208 5.433 2.74 8.388 2.382 4.596 6.735 9.316 12.922 12.057 3.911 1.733 8.46 2.616 13.541 2.805 1.175 3.885 2.99 8.289 6.506 12.47 4.226 5.026 11.626 9.254 20.22 9.116 8.595-.139 17.745-3.763 28.532-11.163a10 10 0 0 0 2.59-13.902 10 10 0 0 0-13.905-2.59c-8.839 6.064-14.683 7.61-17.539 7.656-2.855.046-3.362-.528-4.59-1.988-2.455-2.92-3.67-10.457-3.67-10.457a10 10 0 0 0-11.242-9.367c-6.598.837-10.352.016-12.341-.865-1.99-.881-2.627-1.741-3.266-2.975-1.279-2.467-1.084-6.119-1.084-6.119a10 10 0 0 0-8.873-11.385c-6.678-.686-9.821-2.382-11.152-3.502-1.332-1.12-1.52-1.778-1.698-3.158-.354-2.76 1.307-7.068 1.307-7.068l.113-.23c20.094-42.282 74.098-52.844 74.098-52.844a10 10 0 0 0 8.062-11.622 10 10 0 0 0-9.748-8.22M-2765.393-439.19c-3.49.183-8.164.965-12.893 3.36s-9.666 6.974-12.103 13.486c-1.636 4.368-2.105 9.357-1.627 14.892-2.314 1.325-4.714 2.957-6.987 5.389-3.533 3.782-6.526 9.463-7.039 16.21-.324 4.267.368 8.85 1.89 13.7-3.267 2.407-6.811 5.592-9.575 10.305-3.322 5.664-4.829 14.05-1.823 22.103 3.007 8.053 9.482 15.464 20.065 23.153a10 10 0 0 0 13.969-2.213 10 10 0 0 0-2.213-13.969c-8.672-6.3-12.085-11.29-13.084-13.965s-.627-3.346.338-4.992c1.93-3.291 8.627-6.957 8.627-6.957a10 10 0 0 0 5.062-13.729c-2.997-5.938-3.477-9.75-3.312-11.92.164-2.169.76-3.056 1.709-4.072 1.897-2.03 5.402-3.07 5.402-3.07a10 10 0 0 0 7.762-12.172c-1.588-6.522-1.044-10.05-.434-11.68s1.167-2.03 2.408-2.658c2.483-1.257 7.098-1.133 7.098-1.133l.256.03c46.568 4.786 74.594 52.142 74.594 52.142a10 10 0 0 0 13.648 3.71 10 10 0 0 0 3.707-13.65s-31.147-55.95-89.744-62.071c-.076-.014-2.27-.409-5.701-.229" style="color:#000;font-style:normal;font-variant:normal;font-weight:400;font-stretch:normal;font-size:medium;line-height:normal;font-family:sans-serif;font-variant-ligatures:normal;font-variant-position:normal;font-variant-caps:normal;font-variant-numeric:normal;font-variant-alternates:normal;font-variant-east-asian:normal;font-feature-settings:normal;font-variation-settings:normal;text-indent:0;text-align:start;text-decoration:none;text-decoration-line:none;text-decoration-style:solid;text-decoration-color:#000;letter-spacing:normal;word-spacing:normal;text-transform:none;writing-mode:lr-tb;direction:ltr;text-orientation:mixed;dominant-baseline:auto;baseline-shift:baseline;text-anchor:start;white-space:normal;shape-padding:0;shape-margin:0;inline-size:0;clip-rule:nonzero;display:inline;overflow:visible;visibility:visible;isolation:auto;mix-blend-mode:normal;color-interpolation:sRGB;color-interpolation-filters:linearRGB;solid-color:#000;solid-opacity:1;vector-effect:none;fill:#ee751e;fill-opacity:1;fill-rule:nonzero;stroke:none;stroke-width:20;stroke-linecap:round;stroke-linejoin:round;stroke-miterlimit:4;stroke-dasharray:none;stroke-dashoffset:0;stroke-opacity:1;color-rendering:auto;image-rendering:auto;shape-rendering:auto;text-rendering:auto;enable-background:accumulate;stop-color:#000" transform="translate(3869.565 680.657)scale(1.31731)"/><path d="M-2639.799-342.96a13.143 13.143 0 0 1-13.143 13.142 13.143 13.143 0 0 1-13.143-13.143 13.143 13.143 0 0 1 13.143-13.143 13.143 13.143 0 0 1 13.143 13.143" style="fill:#ee751e;fill-opacity:1;stroke:#ee751e;stroke-width:4.99999;stroke-linecap:round;stroke-linejoin:round;stroke-miterlimit:4;stroke-dasharray:none;stroke-opacity:1" transform="translate(3869.565 680.657)scale(1.31731)"/><path d="M-3146.776-396.703c-5.396-.085-11.427 1.493-16.524 5.441-6.795 5.264-11.944 13.651-16.14 26.041a10 10 0 0 0 6.263 12.678 10 10 0 0 0 12.68-6.262c3.439-10.152 7.188-14.895 9.445-16.644s3.01-1.593 4.868-1.16c3.716.865 9.207 6.168 9.207 6.168a10 10 0 0 0 14.613.754c4.779-4.627 8.276-6.22 10.396-6.707s3.145-.183 4.397.421c2.503 1.208 4.535 4.248 4.535 4.248a10 10 0 0 0 13.93 3.791c5.755-3.454 9.286-3.983 11.023-3.884 1.737.098 2.283.511 3.252 1.51 1.938 1.996 3.193 6.439 3.193 6.439l.047.254c9.27 45.886-27.615 86.72-27.615 86.72a10 10 0 0 0 .516 14.133 10 10 0 0 0 14.13-.515s44.17-46.373 32.596-104.143c-.02-.16-1.196-9.277-8.515-16.818-3.692-3.804-9.533-7.155-16.475-7.547-4.657-.263-9.56.77-14.703 2.871-1.953-1.815-4.224-3.624-7.22-5.07-4.662-2.25-10.976-3.417-17.571-1.9-4.17.958-8.34 2.979-12.52 5.874-3.27-2.405-7.362-4.841-12.683-6.08a24.4 24.4 0 0 0-5.125-.613zM-3012.167-342.5a10 10 0 0 0-9.877 9.857 10 10 0 0 0 9.857 10.141c10.718.153 16.385 2.264 18.743 3.875s2.44 2.372 2.6 4.274c.318 3.802-3.042 10.658-3.042 10.658a10 10 0 0 0 3.772 14.136c5.87 3.127 8.462 5.966 9.578 7.834s1.14 2.936.95 4.313c-.381 2.753-2.65 5.623-2.65 5.623a10 10 0 0 0 .673 14.418c5.055 4.416 6.643 7.616 7.084 9.299s.214 2.33-.438 3.558c-1.305 2.458-5.146 5.016-5.146 5.016l-.227.125c-40.817 22.922-91.012.367-91.012.367a10 10 0 0 0-13.289 4.832 10 10 0 0 0 4.832 13.291s57.694 27.778 109.11-.978c.128-.06 8.466-3.984 13.398-13.276 2.485-4.682 3.88-11.271 2.121-17.998-1.18-4.511-3.67-8.86-7.25-13.107 1.128-2.416 2.148-5.134 2.604-8.432.708-5.127-.12-11.494-3.59-17.304-2.193-3.673-5.398-7.02-9.438-10.108 1.284-3.85 2.346-8.493 1.889-13.937-.549-6.544-4.15-14.268-11.248-19.118s-16.658-7.173-29.738-7.359zM-3107.194-212.021a10 10 0 0 0-10.032 8.84s-8.195 63.497 35.28 103.242c.086.09 6.445 6.786 16.828 8.543 5.226.884 11.92.134 17.75-3.655 3.91-2.54 7.253-6.274 10.158-11.01 2.648.31 5.55.425 8.822-.181 5.09-.942 10.871-3.735 15.293-8.858 2.796-3.238 4.965-7.333 6.623-12.14 4.06.006 8.8-.45 13.823-2.598 6.037-2.581 12.236-8.432 14.603-16.695 2.368-8.263 1.56-18.07-2.383-30.543a10 10 0 0 0-12.548-6.522 10 10 0 0 0-6.522 12.55c3.23 10.22 3.013 16.262 2.227 19.007-.787 2.745-1.487 3.065-3.24 3.815-3.509 1.5-11.071.468-11.071.468a10 10 0 0 0-12.232 8.033c-1.119 6.557-2.997 9.91-4.418 11.557s-2.429 2.007-3.795 2.26c-2.733.506-6.17-.744-6.17-.744a10 10 0 0 0-13.475 5.18c-2.599 6.189-5.133 8.702-6.592 9.65s-2.143.939-3.515.707c-2.744-.464-6.383-3.307-6.383-3.307l-.19-.176c-34.609-31.522-29.007-86.263-29.007-86.263a10 10 0 0 0-8.774-11.094 10 10 0 0 0-1.06-.066M-3144.487-234.326a10 10 0 0 0-1.871.16s-63.147 10.627-88.526 63.793c-.07.125-4.61 8.141-3.273 18.574.674 5.258 3.338 11.444 8.658 15.92 3.568 3.003 8.113 5.114 13.488 6.516.475 2.624 1.209 5.433 2.74 8.388 2.382 4.596 6.735 9.316 12.922 12.057 3.911 1.733 8.461 2.616 13.541 2.805 1.175 3.885 2.99 8.289 6.506 12.47 4.226 5.026 11.626 9.254 20.221 9.116s17.744-3.763 28.531-11.162a10 10 0 0 0 2.59-13.903 10 10 0 0 0-13.904-2.59c-8.84 6.064-14.684 7.61-17.54 7.657s-3.361-.528-4.59-1.989c-2.455-2.92-3.67-10.457-3.669-10.457a10 10 0 0 0-11.242-9.367c-6.599.837-10.353.016-12.342-.865s-2.626-1.74-3.266-2.975c-1.278-2.467-1.084-6.119-1.084-6.119a10 10 0 0 0-8.873-11.385c-6.677-.686-9.82-2.381-11.152-3.502s-1.52-1.778-1.697-3.158c-.354-2.76 1.306-7.068 1.306-7.068l.114-.23c20.093-42.282 74.097-52.844 74.097-52.844a10 10 0 0 0 8.063-11.621 10 10 0 0 0-9.748-8.221M-3222.255-333.049c-3.49.183-8.164.965-12.892 3.36-4.73 2.394-9.666 6.975-12.104 13.486-1.635 4.368-2.104 9.358-1.627 14.893-2.314 1.324-4.714 2.956-6.986 5.388-3.534 3.782-6.527 9.463-7.04 16.211-.323 4.266.369 8.848 1.891 13.7-3.268 2.407-6.812 5.591-9.576 10.304-3.322 5.664-4.828 14.05-1.822 22.104 3.006 8.052 9.481 15.463 20.064 23.152a10 10 0 0 0 13.97-2.213 10 10 0 0 0-2.214-13.969c-8.672-6.3-12.085-11.289-13.084-13.965-.999-2.675-.627-3.346.338-4.992 1.93-3.291 8.627-6.957 8.627-6.957a10 10 0 0 0 5.063-13.728c-2.997-5.938-3.478-9.75-3.313-11.92s.76-3.057 1.71-4.073c1.896-2.03 5.401-3.07 5.401-3.07a10 10 0 0 0 7.762-12.172c-1.588-6.522-1.044-10.05-.434-11.68s1.167-2.03 2.409-2.658c2.482-1.257 7.097-1.132 7.097-1.132l.256.029c46.568 4.786 74.594 52.142 74.594 52.142a10 10 0 0 0 13.648 3.71 10 10 0 0 0 3.707-13.649s-31.147-55.951-89.744-62.072c-.076-.014-2.27-.409-5.7-.229" style="color:#000;font-style:normal;font-variant:normal;font-weight:400;font-stretch:normal;font-size:medium;line-height:normal;font-family:sans-serif;font-variant-ligatures:normal;font-variant-position:normal;font-variant-caps:normal;font-variant-numeric:normal;font-variant-alternates:normal;font-variant-east-asian:normal;font-feature-settings:normal;font-variation-settings:normal;text-indent:0;text-align:start;text-decoration:none;text-decoration-line:none;text-decoration-style:solid;text-decoration-color:#000;letter-spacing:normal;word-spacing:normal;text-transform:none;writing-mode:lr-tb;direction:ltr;text-orientation:mixed;dominant-baseline:auto;baseline-shift:baseline;text-anchor:start;white-space:normal;shape-padding:0;shape-margin:0;inline-size:0;clip-rule:nonzero;display:inline;overflow:visible;visibility:visible;isolation:auto;mix-blend-mode:normal;color-interpolation:sRGB;color-interpolation-filters:linearRGB;solid-color:#000;solid-opacity:1;vector-effect:none;fill:#68d070;fill-opacity:1;fill-rule:nonzero;stroke:none;stroke-width:20;stroke-linecap:round;stroke-linejoin:round;stroke-miterlimit:4;stroke-dasharray:none;stroke-dashoffset:0;stroke-opacity:1;color-rendering:auto;image-rendering:auto;shape-rendering:auto;text-rendering:auto;enable-background:accumulate;stop-color:#000" transform="translate(4460.44 540.558)scale(1.31731)"/><path d="M-3096.66-236.82a13.143 13.143 0 0 1-13.143 13.144 13.143 13.143 0 0 1-13.144-13.143 13.143 13.143 0 0 1 13.144-13.143 13.143 13.143 0 0 1 13.143 13.143" style="fill:#68d070;fill-opacity:1;stroke:#68d070;stroke-width:4.99999;stroke-linecap:round;stroke-linejoin:round;stroke-miterlimit:4;stroke-dasharray:none;stroke-opacity:1" transform="translate(4460.44 540.558)scale(1.31731)"/><path d="M-10181.594-1899.613c-16.124 2.162-32.816 8.319-47.465 19.666-25.683 19.894-45.143 51.593-61.003 98.422a37.795 37.795 0 0 0 19.216 46.08 37.8 37.8 0 0 0 20.953-22.627c12.997-38.372 27.164-56.299 35.698-62.909s11.373-6.019 18.396-4.384c3.829.891 8.154 3.047 12.424 5.685.201-.163.414-.352.609-.504 8.533-6.61 11.374-6.019 18.397-4.384 14.045 3.269 34.797 23.312 34.797 23.312a37.8 37.8 0 0 0 12.357 9.652 37.8 37.8 0 0 0 11.445-7.6c18.063-17.484 31.279-23.506 39.293-25.349s11.888-.689 16.618 1.594c1.633.788 3.208 1.792 4.705 2.898 3.969-1.916 7.353-3.062 10.107-3.695 8.014-1.842 11.888-.69 16.617 1.594 9.46 4.566 17.141 16.055 17.141 16.055a37.8 37.8 0 0 0 16.61 15.886 38 38 0 0 0 4.609-2.353c21.753-13.056 35.096-15.055 41.662-14.684 5.989.339 8.242 1.689 11.369 4.783 9.47-3.539 16.042-4.213 20.06-3.986 6.566.371 8.629 1.933 12.292 5.707 7.325 7.547 12.068 24.338 12.068 24.338a38 38 0 0 0 .178.959c35.038 173.427-104.371 327.764-104.371 327.764a37.795 37.795 0 0 0 1.947 53.414 37.8 37.8 0 0 0 9.144 6.277 37.8 37.8 0 0 0 12.836-9.021s166.939-175.266 123.196-393.61c-.075-.603-4.523-35.065-32.186-63.566-11.7-12.054-29.111-22.9-49.896-26.965-11.79 1.53-23.959 4.962-36.51 10.09-2.938-2.731-6.08-5.454-9.496-8.092-7.178 1.809-14.489 4.253-21.934 7.295-7.38-6.861-15.963-13.696-27.291-19.164-7.447-3.595-16.019-6.442-25.307-8.117-3.198.415-6.425.986-9.671 1.732-15.758 3.623-31.522 11.259-47.319 22.203-4.822-3.547-10.125-7.109-15.986-10.416-5.145 2.841-10.291 6.053-15.442 9.621-12.358-9.09-27.827-18.3-47.937-22.98a85 85 0 0 0-2.93-.621M-9662.79-1695.266a37.795 37.795 0 0 0-32.388 36.872 37.795 37.795 0 0 0 37.258 38.326c40.509.576 61.923 8.557 70.836 14.646s9.222 8.965 9.824 16.15c1.205 14.371-11.492 40.284-11.492 40.284a37.8 37.8 0 0 0 14.254 53.43c22.19 11.815 31.985 22.549 36.201 29.609s4.307 11.096 3.588 16.299c-1.438 10.405-10.01 21.252-10.01 21.252a37.8 37.8 0 0 0 2.54 54.494c19.108 16.689 25.109 28.782 26.773 35.144s.811 8.806-1.655 13.451c-4.93 9.29-19.449 18.956-19.449 18.956a38 38 0 0 0-.857.472c-61.013 34.264-127.56 41.632-185.733 38.031-100.622 1.26-184.495-35.158-189.037-37.164a37.8 37.8 0 0 0-19.437 18.784 37.795 37.795 0 0 0 18.261 50.234s80.236 38.619 186.733 44.758c61.344-.427 129.109-12.836 194.22-49.252.486-.228 32-15.056 50.641-50.176 9.393-17.695 14.666-42.6 8.016-68.023-4.461-17.052-13.873-33.484-27.4-49.54 4.262-9.132 8.117-19.406 9.84-31.869 2.677-19.377-.456-43.442-13.569-65.402-8.29-13.882-20.401-26.532-35.67-38.201 4.853-14.554 8.864-32.102 7.139-52.678-2.074-24.73-15.688-53.926-42.512-72.254-21.984-15.02-50.227-23.627-86.914-26.633M-10032.221-1199.469a37.8 37.8 0 0 0-22.699 30.375s-30.974 239.99 133.34 390.207c.318.334 23.322 24.532 61.037 31.81 12.743-1.776 25.984-6.178 38.223-14.13 14.78-9.604 27.415-23.715 38.394-41.611 10.01 1.17 20.974 1.602 33.344-.688 19.236-3.56 41.086-14.115 57.799-33.476 10.566-12.24 18.766-27.718 25.033-45.885 15.34.023 33.258-1.702 52.24-9.819 22.82-9.756 46.248-31.868 55.196-63.1 8.947-31.23 5.895-68.296-9.006-115.439a37.8 37.8 0 0 0-19.453-22.572 37.795 37.795 0 0 0-21.196 46.15c12.21 38.63 11.39 61.464 8.416 71.84-2.973 10.377-5.616 11.584-12.246 14.418-13.26 5.67-41.842 1.772-41.842 1.772l-.297-.07c-6.211.716-13.056.66-18.763.36a37.8 37.8 0 0 0-27.172 30.071c-4.227 24.781-11.324 37.453-16.697 43.678-5.374 6.225-9.18 7.585-14.344 8.54-10.328 1.913-23.318-2.812-23.318-2.812a38 38 0 0 0-.84-.38c-2.33 1.305-4.62 1.906-7.27 2.396-9.601 1.777-21.075-2.047-22.703-2.613a37.8 37.8 0 0 0-20.115 20.174c-9.823 23.392-19.4 32.891-24.914 36.474s-8.102 3.55-13.287 2.672c-4.73-.8-10.153-3.469-14.664-6.137a30.4 30.4 0 0 1-3.479 2.668c-5.514 3.583-8.102 3.55-13.287 2.672-10.37-1.755-24.123-12.496-24.123-12.496a38 38 0 0 0-.717-.664c-130.807-119.138-109.637-326.037-109.637-326.037a37.795 37.795 0 0 0-20.953-38.348M-10174.338-1284.326c-44.723 9.763-240.583 61.814-325.273 239.232-.269.474-17.426 30.77-12.371 70.203 2.547 19.871 12.615 43.252 32.722 60.17 13.487 11.348 30.666 19.325 50.981 24.625 1.792 9.918 4.566 20.535 10.355 31.705 9.001 17.369 25.455 35.21 48.84 45.569 14.782 6.548 31.976 9.888 51.178 10.601 4.44 14.686 11.302 31.33 24.59 47.133 12.734 15.146 33.102 28.363 57.298 32.838 28.934-3.357 59.864-16.904 95.532-41.371a37.795 37.795 0 0 0 9.789-52.543 37.8 37.8 0 0 0-14.584-12.584 37.8 37.8 0 0 0-6.539 3.592c-33.408 22.916-55.499 28.762-66.291 28.935-8.162.131-11.246-1.082-14.272-4.066-7.34 2.318-13.064 3.206-17.156 3.271-10.793.174-12.707-1.996-17.348-7.515-9.28-11.038-13.871-39.524-13.871-39.524a37.8 37.8 0 0 0-24.803-33.418c-9.607.411-17.089-.256-22.855-1.408-21.75 2.134-34.496-.753-41.477-3.846-7.518-3.33-9.927-6.58-12.343-11.244-4.833-9.326-4.096-23.127-4.096-23.127a37.8 37.8 0 0 0-33.537-43.029c-25.238-2.594-37.119-9.002-42.151-13.236s-5.745-6.72-6.414-11.936c-1.337-10.432 4.938-26.715 4.938-26.715a38 38 0 0 0 .428-.87c75.944-159.804 280.054-199.725 280.054-199.725a37.795 37.795 0 0 0 30.473-43.922 37.8 37.8 0 0 0-21.797-27.795M-10458.059-1659.451c-12.281 1.234-27.334 4.513-42.548 12.217-17.873 9.05-36.533 26.363-45.747 50.972-6.18 16.509-7.953 35.368-6.148 56.287-8.746 5.008-17.817 11.175-26.406 20.368-13.356 14.293-24.667 35.766-26.604 61.27-1.224 16.12 1.391 33.44 7.145 51.774-12.353 9.099-25.745 21.136-36.192 38.948-12.555 21.407-18.251 53.105-6.888 83.54 11.362 30.437 35.835 58.446 75.834 87.507a38 38 0 0 0 5.631 3.384 37.8 37.8 0 0 0 15.736-12.545 37.795 37.795 0 0 0-8.363-52.796c-32.775-23.813-45.678-42.667-49.453-52.78s-2.371-12.65 1.277-18.869c7.296-12.44 32.607-26.293 32.607-26.293a37.8 37.8 0 0 0 19.133-51.888c-11.326-22.443-13.142-36.852-12.519-45.051s2.873-11.555 6.459-15.393c7.17-7.675 20.417-11.603 20.417-11.603a37.8 37.8 0 0 0 29.336-46.004c-6-24.651-3.944-37.986-1.638-44.145 2.306-6.158 4.41-7.67 9.101-10.045 9.384-4.75 26.827-4.283 26.827-4.283a38 38 0 0 0 .966.111c4.796.493 9.536 1.112 14.227 1.836 8.131-1.365 16.236-1.15 16.236-1.15a38 38 0 0 0 .967.111c176.005 18.088 281.93 197.075 281.93 197.075a37.8 37.8 0 0 0 16.215 15.181 38 38 0 0 0 3.939-1.96 37.795 37.795 0 0 0 14.012-51.585s-116.414-209.104-335.489-234.191" style="color:#000;font-style:normal;font-variant:normal;font-weight:400;font-stretch:normal;font-size:medium;line-height:normal;font-family:sans-serif;font-variant-ligatures:normal;font-variant-position:normal;font-variant-caps:normal;font-variant-numeric:normal;font-variant-alternates:normal;font-variant-east-asian:normal;font-feature-settings:normal;font-variation-settings:normal;text-indent:0;text-align:start;text-decoration:none;text-decoration-line:none;text-decoration-style:solid;text-decoration-color:#000;letter-spacing:normal;word-spacing:normal;text-transform:none;writing-mode:lr-tb;direction:ltr;text-orientation:mixed;dominant-baseline:auto;baseline-shift:baseline;text-anchor:start;white-space:normal;shape-padding:0;shape-margin:0;inline-size:0;clip-rule:nonzero;display:inline;overflow:visible;visibility:visible;isolation:auto;mix-blend-mode:normal;color-interpolation:sRGB;color-interpolation-filters:linearRGB;solid-color:#000;solid-opacity:1;vector-effect:none;fill:#fff;fill-opacity:1;fill-rule:nonzero;stroke:none;stroke-width:75.5906;stroke-linecap:round;stroke-linejoin:round;stroke-miterlimit:4;stroke-dasharray:none;stroke-dashoffset:0;stroke-opacity:1;color-rendering:auto;image-rendering:auto;shape-rendering:auto;text-rendering:auto;enable-background:accumulate;stop-color:#000" transform="matrix(.34854 0 0 .34854 3869.657 680.603)"/><path d="M-10041.387-1343.732a49.67 49.67 0 0 0-35.154 47.503 49.67 49.67 0 0 0 32.766 46.707 49.67 49.67 0 0 0 35.154-47.503 49.67 49.67 0 0 0-32.766-46.707" style="fill:#fff;fill-opacity:1;stroke:#fff;stroke-width:18.8976;stroke-linecap:round;stroke-linejoin:round;stroke-miterlimit:4;stroke-dasharray:none;stroke-opacity:1" transform="matrix(.34854 0 0 .34854 3869.657 680.603)"/><g aria-label="FLORA NATIVA" style="font-size:8.69954px;stroke-width:.217489"><path d="M154.802 478.722h19.487v7.54h-19.487zm.696 22.33h-9.396v-40.599h30.68v7.54h-21.284zM183.163 501.051v-40.598h9.395v32.943h20.357v7.655z" style="-inkscape-font-specification:&quot;Montserrat Bold&quot;;fill:#fff"/><path d="M237.912 501.747q-4.814 0-8.932-1.566-4.06-1.566-7.075-4.408-2.958-2.841-4.64-6.67-1.624-3.827-1.624-8.35 0-4.525 1.624-8.353 1.682-3.827 4.698-6.67 3.016-2.841 7.075-4.407t8.816-1.566q4.814 0 8.816 1.566 4.06 1.566 7.017 4.408 3.016 2.842 4.698 6.67 1.682 3.77 1.682 8.351 0 4.524-1.682 8.41-1.682 3.828-4.698 6.67-2.958 2.783-7.017 4.35-4.002 1.565-8.758 1.565m-.058-8.003q2.726 0 4.988-.928 2.32-.928 4.06-2.668t2.667-4.118q.986-2.378.986-5.278t-.986-5.278q-.928-2.378-2.667-4.117-1.682-1.74-4.002-2.668t-5.046-.928-5.046.928q-2.262.928-4.002 2.668t-2.726 4.117q-.927 2.378-.927 5.278 0 2.842.927 5.278.986 2.378 2.668 4.118 1.74 1.74 4.06 2.668t5.046.928" style="fill:#333;filter:url(#a)"/><path d="M267.143 501.051v-40.598h17.573q5.452 0 9.395 1.798 3.944 1.74 6.09 5.046t2.146 7.887q0 4.524-2.146 7.83-2.146 3.248-6.09 4.988t-9.395 1.74h-12.354l4.176-4.118v15.427zm25.808 0-10.15-14.731h10.034l10.266 14.731zm-16.413-14.383-4.176-4.408h11.832q4.35 0 6.496-1.856 2.145-1.914 2.145-5.22 0-3.364-2.145-5.22t-6.496-1.855h-11.832l4.176-4.466zM304.435 501.051l18.095-40.598h9.28l18.153 40.598h-9.86l-14.847-35.842h3.712l-14.906 35.842zm9.047-8.7 2.494-7.133h20.88l2.551 7.134zM370.61 501.051v-40.598h7.771l23.953 29.23h-3.77v-29.23h9.28v40.598h-7.714l-24.01-29.23h3.77v29.23zM412.136 501.051l18.095-40.598h9.28l18.153 40.598h-9.86l-14.847-35.842h3.712l-14.906 35.842zm9.047-8.7 2.494-7.133h20.88l2.551 7.134zM468.277 501.051V468.11h-12.991v-7.656h35.378v7.656h-12.991v32.942zM495.71 501.051v-40.598h9.395v40.598zM526.702 501.051l-17.515-40.598h10.15l15.311 35.958h-5.974l15.544-35.958h9.337l-17.573 40.598zM550.238 501.051l18.095-40.598h9.28l18.153 40.598h-9.86L571.06 465.21h3.712l-14.905 35.842zm9.048-8.7 2.494-7.133h20.879l2.552 7.134z" style="-inkscape-font-specification:&quot;Montserrat Bold&quot;;fill:#fff"/></g><g aria-label="BAHIA BLANCA" style="font-size:8.40698px;stroke-width:.210175"><path d="M146.079 576.275v-39.232h19.168q7.398 0 11.097 2.802 3.755 2.802 3.755 7.398 0 3.083-1.513 5.38-1.514 2.242-4.148 3.475t-6.053 1.233l1.065-2.297q3.7 0 6.558 1.233 2.858 1.177 4.427 3.53 1.626 2.354 1.626 5.773 0 5.045-3.98 7.903-3.979 2.802-11.714 2.802zm9.023-6.837h10.593q3.53 0 5.324-1.121 1.85-1.177 1.85-3.7 0-2.466-1.85-3.643-1.793-1.233-5.324-1.233H154.43v-6.613h9.696q3.306 0 5.044-1.121 1.793-1.177 1.793-3.53 0-2.299-1.793-3.42-1.738-1.177-5.044-1.177h-9.024zM183.798 576.275l17.487-39.232h8.967l17.543 39.232h-9.528l-14.348-34.637h3.587l-14.404 34.637zm8.743-8.407 2.41-6.894h20.177l2.466 6.894zM258.789 537.043h9.08v39.232h-9.08zm-17.823 39.232h-9.08v-39.232h9.08zm18.495-16.085h-19.168v-7.679h19.168zM277.172 576.275v-39.232h9.08v39.232zM290.399 576.275l17.486-39.232h8.968l17.543 39.232h-9.528l-14.348-34.637h3.587l-14.404 34.637zm8.743-8.407 2.41-6.894h20.177l2.466 6.894zM354.348 576.275v-39.232h19.168q7.398 0 11.097 2.802 3.756 2.802 3.756 7.398 0 3.083-1.514 5.38-1.513 2.242-4.147 3.475t-6.053 1.233l1.065-2.297q3.699 0 6.557 1.233 2.858 1.177 4.428 3.53 1.625 2.354 1.625 5.773 0 5.045-3.98 7.903-3.978 2.802-11.713 2.802zm9.024-6.837h10.592q3.531 0 5.325-1.121 1.85-1.177 1.85-3.7 0-2.466-1.85-3.643-1.794-1.233-5.325-1.233H362.7v-6.613h9.696q3.307 0 5.044-1.121 1.794-1.177 1.794-3.53 0-2.299-1.794-3.42-1.737-1.177-5.044-1.177h-9.023zM397.224 576.275v-39.232h9.08v31.834h19.672v7.398zM426.142 576.275l17.487-39.232h8.967l17.543 39.232h-9.528l-14.348-34.637h3.587l-14.404 34.637zm8.743-8.407 2.41-6.894h20.177l2.466 6.894zM474.23 576.275v-39.232h7.51l23.148 28.247h-3.643v-28.247h8.967v39.232h-7.454l-23.203-28.247h3.643v28.247zM538.291 576.948q-4.54 0-8.463-1.457-3.867-1.514-6.725-4.26-2.859-2.746-4.484-6.445-1.57-3.7-1.57-8.127t1.57-8.127q1.625-3.699 4.484-6.445 2.914-2.747 6.781-4.204 3.868-1.513 8.464-1.513 5.1 0 9.191 1.793 4.148 1.738 6.95 5.157l-5.829 5.38q-2.018-2.298-4.484-3.419-2.466-1.177-5.38-1.177-2.746 0-5.044.897t-3.98 2.578-2.634 3.98q-.897 2.298-.897 5.1t.897 5.1q.953 2.298 2.634 3.98 1.682 1.68 3.98 2.578 2.298.896 5.044.896 2.914 0 5.38-1.12 2.466-1.178 4.484-3.532l5.829 5.381q-2.802 3.419-6.95 5.212-4.091 1.794-9.248 1.794M554.678 576.275l17.487-39.232h8.967l17.543 39.232h-9.528L574.8 541.638h3.587l-14.404 34.637zm8.744-8.407 2.41-6.894h20.177l2.466 6.894z" style="-inkscape-font-specification:&quot;Montserrat Bold&quot;;fill:#fff"/></g><path d="M149.124 518.83h427.879" style="fill:none;stroke:#fff;stroke-width:6.27696;stroke-linecap:round;stroke-linejoin:round;stroke-miterlimit:4;stroke-dasharray:none;stroke-opacity:1"/><path d="M-2590.618-123.315c-14.766 0-26.95 11.865-26.95 26.497s12.184 26.496 26.95 26.496 26.95-11.865 26.95-26.496c0-14.632-12.184-26.497-26.95-26.497m0 10.258c9.337 0 15.148 7.2 15.148 16.17 0 8.969-5.81 16.307-15.148 16.307s-15.04-7.133-15.04-16.102 5.702-16.375 15.04-16.375" style="color:#000;font-style:normal;font-variant:normal;font-weight:400;font-stretch:normal;font-size:medium;line-height:normal;font-family:sans-serif;font-variant-ligatures:normal;font-variant-position:normal;font-variant-caps:normal;font-variant-numeric:normal;font-variant-alternates:normal;font-variant-east-asian:normal;font-feature-settings:normal;font-variation-settings:normal;text-indent:0;text-align:start;text-decoration:none;text-decoration-line:none;text-decoration-style:solid;text-decoration-color:#000;letter-spacing:normal;word-spacing:normal;text-transform:none;writing-mode:lr-tb;direction:ltr;text-orientation:mixed;dominant-baseline:auto;baseline-shift:baseline;text-anchor:start;white-space:normal;shape-padding:0;shape-margin:0;inline-size:0;clip-rule:nonzero;display:inline;overflow:visible;visibility:visible;opacity:1;isolation:auto;mix-blend-mode:normal;color-interpolation:sRGB;color-interpolation-filters:linearRGB;solid-color:#000;solid-opacity:1;vector-effect:none;fill:#ee751e;fill-opacity:1;fill-rule:nonzero;stroke:none;stroke-width:10.2582;stroke-linecap:round;stroke-linejoin:round;stroke-miterlimit:4;stroke-dasharray:none;stroke-dashoffset:0;stroke-opacity:1;paint-order:fill markers stroke;color-rendering:auto;image-rendering:auto;shape-rendering:auto;text-rendering:auto;enable-background:accumulate;stop-color:#000;stop-opacity:1" transform="matrix(.79436 0 0 .79436 2293.314 557.573)"/><path d="M-2595.889-124.966c-14.766 0-26.949 11.865-26.949 26.496 0 14.632 12.183 26.496 26.95 26.496 14.765 0 26.95-11.864 26.95-26.496s-12.185-26.496-26.95-26.496m0 10.258c9.338 0 15.149 7.199 15.149 16.169s-5.811 16.307-15.149 16.307-15.04-7.132-15.04-16.102 5.703-16.374 15.04-16.374" style="color:#000;font-style:normal;font-variant:normal;font-weight:400;font-stretch:normal;font-size:medium;line-height:normal;font-family:sans-serif;font-variant-ligatures:normal;font-variant-position:normal;font-variant-caps:normal;font-variant-numeric:normal;font-variant-alternates:normal;font-variant-east-asian:normal;font-feature-settings:normal;font-variation-settings:normal;text-indent:0;text-align:start;text-decoration:none;text-decoration-line:none;text-decoration-style:solid;text-decoration-color:#000;letter-spacing:normal;word-spacing:normal;text-transform:none;writing-mode:lr-tb;direction:ltr;text-orientation:mixed;dominant-baseline:auto;baseline-shift:baseline;text-anchor:start;white-space:normal;shape-padding:0;shape-margin:0;inline-size:0;clip-rule:nonzero;display:inline;overflow:visible;visibility:visible;opacity:1;isolation:auto;mix-blend-mode:normal;color-interpolation:sRGB;color-interpolation-filters:linearRGB;solid-color:#000;solid-opacity:1;vector-effect:none;fill:#68d070;fill-opacity:1;fill-rule:nonzero;stroke:none;stroke-width:10.2582;stroke-linecap:round;stroke-linejoin:round;stroke-miterlimit:4;stroke-dasharray:none;stroke-dashoffset:0;stroke-opacity:1;paint-order:fill markers stroke;color-rendering:auto;image-rendering:auto;shape-rendering:auto;text-rendering:auto;enable-background:accumulate;stop-color:#000;stop-opacity:1" transform="matrix(.79436 0 0 .79436 2293.314 557.573)"/><path d="M-2590.635-123.345c-14.766 0-26.95 11.864-26.95 26.496 0 10.871 6.727 20.213 16.24 24.298 1.76.358 3.579.547 5.44.547 14.765 0 26.95-11.865 26.95-26.496 0-10.87-6.726-20.212-16.238-24.297a27.2 27.2 0 0 0-5.442-.548m-5.27 8.607c2.783 0 5.25.644 7.347 1.78 8.113.988 13.072 7.756 13.072 16.04 0 8.97-5.812 16.307-15.15 16.307-2.795 0-5.26-.643-7.35-1.78-8.095-.98-12.96-7.691-12.96-15.973 0-8.97 5.703-16.374 15.04-16.374" style="color:#000;font-style:normal;font-variant:normal;font-weight:400;font-stretch:normal;font-size:medium;line-height:normal;font-family:sans-serif;font-variant-ligatures:normal;font-variant-position:normal;font-variant-caps:normal;font-variant-numeric:normal;font-variant-alternates:normal;font-variant-east-asian:normal;font-feature-settings:normal;font-variation-settings:normal;text-indent:0;text-align:start;text-decoration:none;text-decoration-line:none;text-decoration-style:solid;text-decoration-color:#000;letter-spacing:normal;word-spacing:normal;text-transform:none;writing-mode:lr-tb;direction:ltr;text-orientation:mixed;dominant-baseline:auto;baseline-shift:baseline;text-anchor:start;white-space:normal;shape-padding:0;shape-margin:0;inline-size:0;clip-rule:nonzero;display:inline;overflow:visible;visibility:visible;opacity:1;isolation:auto;mix-blend-mode:normal;color-interpolation:sRGB;color-interpolation-filters:linearRGB;solid-color:#000;solid-opacity:1;vector-effect:none;fill:#fff;fill-opacity:1;fill-rule:nonzero;stroke:none;stroke-width:10.2582;stroke-linecap:round;stroke-linejoin:round;stroke-miterlimit:4;stroke-dasharray:none;stroke-dashoffset:0;stroke-opacity:1;paint-order:fill markers stroke;color-rendering:auto;image-rendering:auto;shape-rendering:auto;text-rendering:auto;enable-background:accumulate;stop-color:#000;stop-opacity:1" transform="matrix(.79436 0 0 .79436 2293.314 557.573)"/></svg>